<?xml version="1.0" encoding="UTF-8"?>
<svg width="14px" height="14px" viewBox="0 0 14 14" version="1.1" xmlns="http://www.w3.org/2000/svg" xmlns:xlink="http://www.w3.org/1999/xlink">
    <!-- Generator: Sketch 55.1 (78136) - https://sketchapp.com -->
    <title>Icons/Label</title>
    <desc>Created with Sketch.</desc>
    <g id="Design" stroke="none" stroke-width="1" fill="none" fill-rule="evenodd" opacity="0.900000036">
        <g id="4002-Media-Library---List-View" transform="translate(-1194.000000, -106.000000)" fill="#344563">
            <g id="Content" transform="translate(250.000000, 70.000000)">
                <g id="Header" transform="translate(1.000000, 25.000000)">
                    <g id="View-Options" transform="translate(932.000000, 0.000000)">
                        <g id="Element/Icon/Application" transform="translate(10.000000, 10.000000)">
                            <path d="M2.28571429,1.33333333 L6.0952381,1.33333333 C6.62122357,1.33333333 7.04761905,1.75972881 7.04761905,2.28571429 L7.04761905,6.0952381 C7.04761905,6.62122357 6.62122357,7.04761905 6.0952381,7.04761905 L2.28571429,7.04761905 C1.75972881,7.04761905 1.33333333,6.62122357 1.33333333,6.0952381 L1.33333333,2.28571429 C1.33333333,1.75972881 1.75972881,1.33333333 2.28571429,1.33333333 Z M9.9047619,8.95238095 L13.7142857,8.95238095 C14.2402712,8.95238095 14.6666667,9.37877643 14.6666667,9.9047619 L14.6666667,13.7142857 C14.6666667,14.2402712 14.2402712,14.6666667 13.7142857,14.6666667 L9.9047619,14.6666667 C9.37877643,14.6666667 8.95238095,14.2402712 8.95238095,13.7142857 L8.95238095,9.9047619 C8.95238095,9.37877643 9.37877643,8.95238095 9.9047619,8.95238095 Z M9.9047619,1.33333333 L13.7142857,1.33333333 C14.2402712,1.33333333 14.6666667,1.75972881 14.6666667,2.28571429 L14.6666667,6.0952381 C14.6666667,6.62122357 14.2402712,7.04761905 13.7142857,7.04761905 L9.9047619,7.04761905 C9.37877643,7.04761905 8.95238095,6.62122357 8.95238095,6.0952381 L8.95238095,2.28571429 C8.95238095,1.75972881 9.37877643,1.33333333 9.9047619,1.33333333 Z M2.28571429,8.95238095 L6.0952381,8.95238095 C6.62122357,8.95238095 7.04761905,9.37877643 7.04761905,9.9047619 L7.04761905,13.7142857 C7.04761905,14.2402712 6.62122357,14.6666667 6.0952381,14.6666667 L2.28571429,14.6666667 C1.75972881,14.6666667 1.33333333,14.2402712 1.33333333,13.7142857 L1.33333333,9.9047619 C1.33333333,9.37877643 1.75972881,8.95238095 2.28571429,8.95238095 Z" id="Combined-Shape"></path>
                        </g>
                    </g>
                </g>
            </g>
        </g>
    </g>
</svg>