<?xml version="1.0" encoding="UTF-8"?>
<svg width="14px" height="14px" viewBox="0 0 14 14" version="1.1" xmlns="http://www.w3.org/2000/svg" xmlns:xlink="http://www.w3.org/1999/xlink">
    <!-- Generator: Sketch 55.1 (78136) - https://sketchapp.com -->
    <title>Icons/Star</title>
    <desc>Created with Sketch.</desc>
    <g id="Design" stroke="none" stroke-width="1" fill="none" fill-rule="evenodd" opacity="0.900000036">
        <g id="4002-Media-Library---List-View" transform="translate(-1230.000000, -106.000000)" fill="#344563">
            <g id="Content" transform="translate(250.000000, 70.000000)">
                <g id="Header" transform="translate(1.000000, 25.000000)">
                    <g id="View-Options" transform="translate(932.000000, 0.000000)">
                        <g id="Element/Icon/List" transform="translate(46.000000, 10.000000)">
                            <path d="M2,1.6 L14,1.6 C14.3681898,1.6 14.6666667,1.89847683 14.6666667,2.26666667 L14.6666667,3.6 C14.6666667,3.96818983 14.3681898,4.26666667 14,4.26666667 L2,4.26666667 C1.63181017,4.26666667 1.33333333,3.96818983 1.33333333,3.6 L1.33333333,2.26666667 C1.33333333,1.89847683 1.63181017,1.6 2,1.6 Z M2,6.66666667 L14,6.66666667 C14.3681898,6.66666667 14.6666667,6.9651435 14.6666667,7.33333333 L14.6666667,8.66666667 C14.6666667,9.0348565 14.3681898,9.33333333 14,9.33333333 L2,9.33333333 C1.63181017,9.33333333 1.33333333,9.0348565 1.33333333,8.66666667 L1.33333333,7.33333333 C1.33333333,6.9651435 1.63181017,6.66666667 2,6.66666667 Z M2,11.7333333 L14,11.7333333 C14.3681898,11.7333333 14.6666667,12.0318102 14.6666667,12.4 L14.6666667,13.7333333 C14.6666667,14.1015232 14.3681898,14.4 14,14.4 L2,14.4 C1.63181017,14.4 1.33333333,14.1015232 1.33333333,13.7333333 L1.33333333,12.4 C1.33333333,12.0318102 1.63181017,11.7333333 2,11.7333333 Z" id="Combined-Shape"></path>
                        </g>
                    </g>
                </g>
            </g>
        </g>
    </g>
</svg>