<?xml version="1.0" encoding="UTF-8"?>
<svg width="221px" height="222px" viewBox="0 0 221 222" version="1.1" xmlns="http://www.w3.org/2000/svg" xmlns:xlink="http://www.w3.org/1999/xlink">
    <!-- Generator: Sketch 55.2 (78181) - https://sketchapp.com -->
    <title>OAsis</title>
    <desc>Created with Sketch.</desc>
    <g id="Page-1" stroke="none" stroke-width="1" fill="none" fill-rule="evenodd">
        <g id="OAsis" fill="#009E00" fill-rule="nonzero">
            <path d="M110.5,0.4 C49.5,0.4 0.1,49.8 0.1,110.8 C0.1,171.8 49.5,221.2 110.5,221.2 C171.5,221.2 220.9,171.8 220.9,110.8 C220.8,49.9 171.4,0.4 110.5,0.4 Z M195.5,142.9 C194.7,142.4 193.8,141.9 192.9,141.5 C191.9,141.1 191.4,140 191.8,139 C194.9,130.2 196.6,120.7 196.6,110.8 C196.6,63.4 158,24.8 110.6,24.8 C61.8,24.8 22.3,65.7 24.7,115 C26.7,158.3 61.4,193.7 104.6,196.7 C128.2,198.3 150,190.3 166.4,176.3 C166.2,175.6 166.1,174.9 166.1,174.1 C166.1,169.6 169.7,166 174.2,166 C178.7,166 182.3,169.6 182.3,174.1 C182.3,178.6 178.7,182.2 174.2,182.2 C173.1,182.2 172.1,182 171.2,181.6 C154.9,195.6 133.7,204.1 110.6,204.1 C57.7,204.1 15,159.8 17.5,106.4 C19.7,58.7 58.4,20 106.1,17.8 C159.5,15.3 203.8,58 203.8,110.9 C203.8,121.9 201.9,132.4 198.4,142.1 C197.9,143.2 196.5,143.6 195.5,142.9 Z M60.9,102.7 C60.9,98.2 64.5,94.6 69,94.6 C73.5,94.6 77.1,98.2 77.1,102.7 C77.1,106.1 75,109.1 72,110.2 C72,112.6 72.1,115 72.6,117.4 C75.6,134.8 90.5,148.1 108.1,149.2 C130.3,150.6 148.8,133 149.1,111.2 C149.3,90.7 132.9,73.2 112.3,72.3 C105.6,72 99.2,73.5 93.6,76.2 C92.9,76.5 92.2,76.3 91.7,75.8 C90.6,74.5 89.6,73.6 88.7,72.6 C88.2,71.9 88.1,71 88.9,70.6 C96.8,66.3 106.2,64.3 116.1,65.4 C137,67.9 153.8,84.8 156,105.7 C159.1,134.6 134.9,159 106,156.1 C85.4,154.1 68.5,138.1 65.4,117.6 C65,114.9 64.8,112.1 64.9,109.5 C62.5,108.2 60.9,105.6 60.9,102.7 Z M100.2,110.8 C100.2,105.1 104.8,100.5 110.5,100.5 C116.2,100.5 120.8,105.1 120.8,110.8 C120.8,116.5 116.2,121.1 110.5,121.1 C104.8,121.1 100.2,116.5 100.2,110.8 Z M148,65.1 C143.5,65.1 139.9,61.5 139.9,57 C139.9,56.8 139.9,56.6 139.9,56.4 C128.5,50.2 115,47.5 100.7,49.7 C74.6,53.7 53.7,74.3 49.4,100.4 C42.5,142.6 78.6,178.8 120.8,171.8 C146.9,167.5 167.5,146.6 171.5,120.5 C173.7,106.1 170.9,92.4 164.6,81 C164.1,80.1 164.4,79.1 165.2,78.5 C166,77.9 166.7,77.8 167.8,77.3 C169,76.7 170.3,76.6 171,77.8 C176.9,88.3 179.8,99.9 179.4,112.9 C178.4,147.6 151.3,176.4 116.8,179.6 C73.7,183.5 37.8,147.5 41.7,104.5 C44.8,70 73.7,42.9 108.4,41.9 C121.2,41.5 133.2,44.6 143.6,50.3 C144.9,49.5 146.4,49 148.1,49 C152.6,49 156.2,52.6 156.2,57.1 C156.2,61.6 152.5,65.1 148,65.1 Z" id="Shape"></path>
        </g>
    </g>
</svg>